<?xml version="1.0"?>
<svg xmlns="http://www.w3.org/2000/svg" width="48" height="48" viewBox="0 0 64 64">
	<path fill="black" d="
		M3,18
		a4,4 0 0 1 4,-4
		h50
		a4,4 0 0 1 4,4
		v28
		a4,4 0 0 1 -4,4
		h-50
		a4,4 0 0 1 -4,-4
	" />
	<rect fill="white" width="6" height="4" x="9" y="22" />
	<rect fill="white" width="6" height="4" x="19" y="22" />
	<rect fill="white" width="6" height="4" x="29" y="22" />
	<rect fill="white" width="6" height="4" x="39" y="22" />
	<rect fill="white" width="6" height="4" x="49" y="22" />
	<rect fill="white" width="6" height="4" x="9" y="28" />
	<rect fill="white" width="6" height="4" x="19" y="28" />
	<rect fill="white" width="6" height="4" x="29" y="28" />
	<rect fill="white" width="6" height="4" x="39" y="28" />
	<rect fill="white" width="6" height="4" x="49" y="28" />
	<rect fill="white" width="6" height="4" x="9" y="34" />
	<rect fill="white" width="6" height="4" x="19" y="34" />
	<rect fill="white" width="6" height="4" x="29" y="34" />
	<rect fill="white" width="6" height="4" x="39" y="34" />
	<rect fill="white" width="6" height="4" x="49" y="34" />
	<rect fill="white" width="22" height="4" x="21" y="42" />
</svg>
