<?xml version="1.0" encoding="iso-8859-1"?>
<!-- Uploaded to: SVG Repo, www.svgrepo.com, Generator: SVG Repo Mixer Tools -->
<svg height="48" width="48" version="1.1" id="Layer_1" xmlns="http://www.w3.org/2000/svg" xmlns:xlink="http://www.w3.org/1999/xlink"
	 viewBox="48 48 416 416" xml:space="preserve">
<circle style="fill:#CCCC88;" cx="256" cy="256" r="208"/>
<path style="fill:#263740;" d="M217.496,401.54c15.828,6.696,56.56,11.204,100.04-4.928l53.26-70.96
	c19.348-70.692-56.98-134.104-59.408-139.312c-2.396-5.192-7.148-44.452-7.148-44.452c0-24.228-20.416-43.884-45.596-43.884
	s-43.628,19.752-45.596,43.884c-0.508,6.208,4.228,46.2,5.432,65.252c-22.784,21.336-61.76,74.416-59.652,124.26L217.496,401.54z"/>
<path style="fill:#1E2C33;" d="M311.4,186.336c-2.4-5.192-7.156-44.452-7.156-44.452c0-24.228-20.416-43.884-45.592-43.884
	c-2.744,0-5.392,0.276-7.956,0.724c21.336,3.664,37.56,21.58,37.56,43.164c0,0,4.752,39.26,7.148,44.452
	c2.42,5.204,78.752,68.62,59.408,139.312l-53.264,70.956c-18.672,6.924-36.812,10.036-52.716,10.812
	c19.076,0.952,43.412-1.416,68.716-10.812l53.256-70.956C390.144,254.956,313.816,191.544,311.4,186.336z"/>
<path style="fill:#F5F5F5;" d="M322.184,410.788c-10.168-17.46-8.76-73.616,3.152-86.496c16.704-5.044,59.116-4.084,62.668,18.68
	C393.584,378.508,346.828,419.668,322.184,410.788z"/>
<path style="fill:#E6E6E6;" d="M388.004,342.976c-2.668-17.1-27.268-21.9-46.424-21.084c17.412,0.72,36.116,6.296,38.424,21.084
	c4.788,30.5-28.964,65.108-54.216,68.7C351.092,415.796,393.32,376.848,388.004,342.976z"/>
<path style="fill:#F5F5F5;" d="M217.752,404.348c-0.672-20.008-27.428-66.26-49.172-72.432c-15.468-4.852-52.78,25.896-43.6,47.18
	C139.308,412.264,201.416,424.208,217.752,404.348z"/>
<path style="fill:#E6E6E6;" d="M168.58,331.916c-2.252-0.708-4.968-0.64-7.932,0.016c21.732,6.252,48.432,52.424,49.104,72.416
	c-4.804,5.844-13.584,8.916-23.928,9.52c13.736,0.772,25.92-2.216,31.928-9.52C217.08,384.336,190.316,338.084,168.58,331.916z"/>
<path style="fill:#FFD464;" d="M239.644,187c3.024-4,12.204-9.972,20.856-13.428c9.5-1.228,19.332,1.428,24.744,3.752
	c3.588,19.844-8.576,15.176-20.076,34.344C246.976,200.528,242.168,200.832,239.644,187z"/>
</svg>
